<svg width="249" height="85" viewBox="0 0 249 85" fill="none" xmlns="http://www.w3.org/2000/svg">
<g clip-path="url(#clip0_1481_163)">
<path d="M28.6326 23.0782C24.3728 23.9038 14.5885 27.033 9.51841 32.9519M33.2033 31.3349C27.06 33.4387 12.9477 40.744 5.65592 53.1271M33.9864 40.0968C30.6861 42.3364 23.1038 48.1016 19.1649 53.2528M42.8045 21.9775L45.8947 14.4862L50.0353 21.4549L57.3536 22.1325L51.7658 28.597L54.7037 35.6528L47.21 32.5622L40.2413 36.7028L42.1264 29.2982L35.6619 23.7104L42.8045 21.9775Z" stroke="#1E1B4B" stroke-width="2" stroke-linecap="round" stroke-linejoin="round"/>
</g>
<path d="M44.4304 75.504C42.2464 75.504 40.3284 75.098 38.6764 74.286C37.0244 73.446 35.7364 72.228 34.8124 70.632C33.9164 69.008 33.4684 67.02 33.4684 64.668H36.2824C36.2824 67.328 37.0244 69.386 38.5084 70.842C39.9924 72.27 41.9524 72.984 44.3884 72.984C46.5164 72.984 48.2384 72.48 49.5544 71.472C50.8984 70.464 51.5704 69.064 51.5704 67.272C51.5704 66.068 51.2484 65.102 50.6044 64.374C49.9604 63.646 49.1064 63.058 48.0424 62.61C47.0064 62.162 45.8584 61.77 44.5984 61.434C43.3664 61.098 42.1204 60.748 40.8604 60.384C39.6284 60.02 38.4804 59.558 37.4164 58.998C36.3804 58.41 35.5404 57.654 34.8964 56.73C34.2524 55.806 33.9304 54.616 33.9304 53.16C33.9304 51.564 34.3364 50.178 35.1484 49.002C35.9604 47.798 37.0944 46.86 38.5504 46.188C40.0344 45.516 41.7704 45.18 43.7584 45.18C45.7744 45.18 47.5524 45.544 49.0924 46.272C50.6324 47 51.8364 48.008 52.7044 49.296C53.6004 50.584 54.0624 52.124 54.0904 53.916H51.2764C51.2484 52.684 50.9124 51.606 50.2684 50.682C49.6244 49.73 48.7284 49.002 47.5804 48.498C46.4604 47.966 45.1864 47.7 43.7584 47.7C41.7144 47.7 40.0624 48.19 38.8024 49.17C37.5704 50.15 36.9544 51.452 36.9544 53.076C36.9544 54.168 37.2764 55.036 37.9204 55.68C38.5644 56.324 39.4044 56.856 40.4404 57.276C41.5044 57.668 42.6524 58.032 43.8844 58.368C45.1444 58.676 46.3904 59.026 47.6224 59.418C48.8824 59.782 50.0304 60.272 51.0664 60.888C52.1304 61.504 52.9844 62.316 53.6284 63.324C54.2724 64.332 54.5944 65.62 54.5944 67.188C54.5944 68.952 54.1464 70.45 53.2504 71.682C52.3544 72.914 51.1364 73.866 49.5964 74.538C48.0564 75.182 46.3344 75.504 44.4304 75.504ZM78.2568 75L78.0888 69.036V60.258C78.0888 58.27 77.4588 56.702 76.1988 55.554C74.9388 54.378 73.2168 53.79 71.0328 53.79C68.9608 53.79 67.2528 54.294 65.9088 55.302C64.5648 56.31 63.8368 57.682 63.7248 59.418H61.0368C61.1488 57.766 61.6388 56.366 62.5068 55.218C63.4028 54.042 64.5788 53.146 66.0348 52.53C67.5188 51.886 69.1988 51.564 71.0748 51.564C73.0628 51.564 74.7848 51.914 76.2408 52.614C77.6968 53.314 78.8168 54.322 79.6008 55.638C80.3848 56.954 80.7768 58.522 80.7768 60.342V75H78.2568ZM69.3108 75.504C67.8268 75.504 66.5108 75.252 65.3628 74.748C64.2148 74.244 63.3188 73.502 62.6748 72.522C62.0588 71.514 61.7508 70.324 61.7508 68.952C61.7508 66.572 62.6608 64.724 64.4808 63.408C66.3008 62.092 68.8488 61.434 72.1248 61.434H78.5928V63.66L71.9568 63.702C69.6048 63.702 67.7708 64.164 66.4548 65.088C65.1388 65.984 64.4808 67.244 64.4808 68.868C64.4808 70.268 64.9428 71.332 65.8668 72.06C66.8188 72.788 68.0648 73.152 69.6048 73.152C71.5368 73.152 73.2448 72.62 74.7288 71.556C76.2128 70.464 77.4028 68.966 78.2988 67.062L78.6348 69.288C77.8788 71.248 76.7168 72.774 75.1488 73.866C73.5808 74.958 71.6348 75.504 69.3108 75.504ZM88.3952 75V44.256H91.0832V56.898L91.0412 62.778L95.4932 58.872L103.515 52.068H107.337L91.0832 65.928V75H88.3952ZM104.649 75L96.1652 60.426L98.3912 58.872L107.883 75H104.649ZM125.792 75.504C123.468 75.504 121.466 75.028 119.786 74.076C118.106 73.096 116.818 71.71 115.922 69.918C115.026 68.098 114.578 65.97 114.578 63.534C114.578 61.042 115.026 58.914 115.922 57.15C116.818 55.358 118.106 53.986 119.786 53.034C121.466 52.054 123.468 51.564 125.792 51.564C129.292 51.564 132.036 52.628 134.024 54.756C136.04 56.884 137.048 59.81 137.048 63.534C137.048 65.97 136.586 68.098 135.662 69.918C134.766 71.71 133.478 73.096 131.798 74.076C130.118 75.028 128.116 75.504 125.792 75.504ZM125.792 73.152C128.424 73.152 130.496 72.298 132.008 70.59C133.52 68.854 134.276 66.502 134.276 63.534C134.276 60.538 133.52 58.186 132.008 56.478C130.496 54.77 128.424 53.916 125.792 53.916C123.16 53.916 121.088 54.77 119.576 56.478C118.092 58.186 117.35 60.538 117.35 63.534C117.35 66.502 118.092 68.854 119.576 70.59C121.088 72.298 123.16 73.152 125.792 73.152ZM153.78 75.504C151.232 75.504 149.02 74.846 147.144 73.53C145.268 72.186 143.826 70.366 142.818 68.07C141.81 65.774 141.306 63.184 141.306 60.3C141.306 57.22 141.838 54.546 142.902 52.278C143.966 50.01 145.436 48.26 147.312 47.028C149.216 45.796 151.4 45.18 153.864 45.18C155.908 45.18 157.714 45.586 159.282 46.398C160.878 47.182 162.18 48.302 163.188 49.758C164.196 51.214 164.798 52.936 164.994 54.924H161.886C161.634 52.74 160.78 50.99 159.324 49.674C157.868 48.358 156.02 47.7 153.78 47.7C151.904 47.7 150.252 48.232 148.824 49.296C147.396 50.332 146.29 51.802 145.506 53.706C144.722 55.61 144.33 57.822 144.33 60.342C144.33 62.918 144.736 65.158 145.548 67.062C146.388 68.938 147.522 70.394 148.95 71.43C150.378 72.466 151.988 72.984 153.78 72.984C155.348 72.984 156.72 72.662 157.896 72.018C159.072 71.374 160.024 70.478 160.752 69.33C161.48 68.182 161.9 66.852 162.012 65.34H165.162C164.966 67.356 164.378 69.134 163.398 70.674C162.418 72.214 161.102 73.404 159.45 74.244C157.826 75.084 155.936 75.504 153.78 75.504ZM187.522 75L187.354 69.036V60.258C187.354 58.27 186.724 56.702 185.464 55.554C184.204 54.378 182.482 53.79 180.298 53.79C178.226 53.79 176.518 54.294 175.174 55.302C173.83 56.31 173.102 57.682 172.99 59.418H170.302C170.414 57.766 170.904 56.366 171.772 55.218C172.668 54.042 173.844 53.146 175.3 52.53C176.784 51.886 178.464 51.564 180.34 51.564C182.328 51.564 184.05 51.914 185.506 52.614C186.962 53.314 188.082 54.322 188.866 55.638C189.65 56.954 190.042 58.522 190.042 60.342V75H187.522ZM178.576 75.504C177.092 75.504 175.776 75.252 174.628 74.748C173.48 74.244 172.584 73.502 171.94 72.522C171.324 71.514 171.016 70.324 171.016 68.952C171.016 66.572 171.926 64.724 173.746 63.408C175.566 62.092 178.114 61.434 181.39 61.434H187.858V63.66L181.222 63.702C178.87 63.702 177.036 64.164 175.72 65.088C174.404 65.984 173.746 67.244 173.746 68.868C173.746 70.268 174.208 71.332 175.132 72.06C176.084 72.788 177.33 73.152 178.87 73.152C180.802 73.152 182.51 72.62 183.994 71.556C185.478 70.464 186.668 68.966 187.564 67.062L187.9 69.288C187.144 71.248 185.982 72.774 184.414 73.866C182.846 74.958 180.9 75.504 178.576 75.504ZM214.965 60.846V58.326C214.965 57.01 214.531 55.96 213.663 55.176C212.823 54.364 211.633 53.958 210.093 53.958C208.049 53.958 206.257 54.77 204.717 56.394C203.177 57.99 202.071 60.314 201.399 63.366L200.853 59.88C201.385 58.06 202.099 56.534 202.995 55.302C203.891 54.07 204.955 53.146 206.187 52.53C207.447 51.886 208.819 51.564 210.303 51.564C212.515 51.564 214.293 52.18 215.637 53.412C216.981 54.616 217.653 56.254 217.653 58.326V60.846H214.965ZM199.299 75V52.068H201.735L201.987 58.032V75H199.299ZM235.309 75.504C233.013 75.504 231.025 75.028 229.345 74.076C227.665 73.096 226.377 71.71 225.481 69.918C224.585 68.126 224.137 65.984 224.137 63.492C224.137 61.056 224.585 58.942 225.481 57.15C226.377 55.358 227.665 53.986 229.345 53.034C231.053 52.054 233.069 51.564 235.393 51.564C238.809 51.564 241.413 52.502 243.205 54.378C245.025 56.254 245.851 58.844 245.683 62.148H226.279L226.321 59.88L242.911 59.922C242.799 58.046 242.057 56.576 240.685 55.512C239.341 54.448 237.577 53.916 235.393 53.916C232.705 53.916 230.605 54.77 229.093 56.478C227.609 58.186 226.867 60.538 226.867 63.534C226.867 65.466 227.203 67.16 227.875 68.616C228.547 70.072 229.513 71.192 230.773 71.976C232.033 72.76 233.545 73.152 235.309 73.152C237.465 73.152 239.257 72.648 240.685 71.64C242.113 70.604 242.995 69.218 243.331 67.482H246.019C245.599 69.974 244.437 71.934 242.533 73.362C240.629 74.79 238.221 75.504 235.309 75.504Z" fill="#1E1B4B"/>
<defs>
<clipPath id="clip0_1481_163">
<rect width="58" height="58" fill="white" transform="translate(10.9059) rotate(10.838)"/>
</clipPath>
</defs>
</svg>
